<svg xmlns="http://www.w3.org/2000/svg" viewBox="0 0 245 240" role="img" aria-label="Discord">
  <title>Discord</title>
  <path fill="#5865F2" d="M104.4 104.7c-5.7 0-10.2 5-10.2 11.1 0 6.1 4.6 11.1 10.2 11.1 5.7 0 10.2-5 10.2-11.1.1-6.1-4.5-11.1-10.2-11.1Zm36.3 0c-5.7 0-10.2 5-10.2 11.1 0 6.1 4.6 11.1 10.2 11.1 5.7 0 10.2-5 10.2-11.1 0-6.1-4.5-11.1-10.2-11.1Z"/>
  <path fill="#5865F2" d="M189.5 20h-134C24.9 20 0 44.9 0 75.5v89c0 30.6 24.9 55.5 55.5 55.5h113l-5.3-18.5 12.8 11.9 12.1 11.2 21.5 19V75.5C209.5 44.9 184.6 20 154 20Zm-39.7 135s-3.7-4.4-6.7-8.3c13.3-3.8 18.4-12.1 18.4-12.1-4.2 2.7-8.1 4.5-11.7 5.8-5 2.1-9.8 3.4-14.5 4.2-9.6 1.8-18.4 1.3-26 0-5.8-1.1-10.8-2.6-15-4.2-2.3-.9-4.9-2-7.5-3.3-.3-.1-.6-.3-.9-.4-.2-.1-.3-.2-.4-.3-1.8-1-2.8-1.7-2.8-1.7s4.9 8.1 17.9 12.1c-3 3.9-6.8 8.5-6.8 8.5-22.4-.7-30.9-15.4-30.9-15.4 0-32.6 14.6-59.1 14.6-59.1 14.6-11 28.4-10.7 28.4-10.7l1 1.2c-18.2 5.2-26.6 13.1-26.6 13.1s2.2-1.2 5.9-2.9c10.7-4.7 19.2-6 22.7-6.3.6-.1 1.1-.2 1.7-.2 6.1-.8 13.1-1 20.4-.2 9.6 1.1 19.9 3.9 30.2 9.6 0 0-8-7.6-25.2-12.8l1.4-1.6s13.9-.3 28.4 10.7c0 0 14.6 26.5 14.6 59.1 0 .1-8.5 14.8-30.9 15.5Z"/>
</svg>
