<svg xmlns="http://www.w3.org/2000/svg" viewBox="0 0 122.8 122.8" role="img" aria-label="Slack">
  <title>Slack</title>
  <path fill="#E01E5A" d="M30.1 76.6c0 8.3-6.7 15-15 15s-15-6.7-15-15 6.7-15 15-15h15v15z"/>
  <path fill="#E01E5A" d="M37.7 76.6c0-8.3 6.7-15 15-15s15 6.7 15 15v37.7c0 8.3-6.7 15-15 15s-15-6.7-15-15V76.6z"/>
  <path fill="#36C5F0" d="M46.2 30.1c-8.3 0-15-6.7-15-15s6.7-15 15-15 15 6.7 15 15v15h-15z"/>
  <path fill="#36C5F0" d="M46.2 37.7c8.3 0 15 6.7 15 15s-6.7 15-15 15H8.5c-8.3 0-15-6.7-15-15s6.7-15 15-15h37.7z"/>
  <path fill="#2EB67D" d="M92.7 46.2c0-8.3 6.7-15 15-15s15 6.7 15 15-6.7 15-15 15h-15v-15z"/>
  <path fill="#2EB67D" d="M85.1 46.2c0 8.3-6.7 15-15 15s-15-6.7-15-15V8.5c0-8.3 6.7-15 15-15s15 6.7 15 15v37.7z"/>
  <path fill="#ECB22E" d="M76.6 92.7c8.3 0 15 6.7 15 15s-6.7 15-15 15-15-6.7-15-15v-15h15z"/>
  <path fill="#ECB22E" d="M76.6 85.1c-8.3 0-15-6.7-15-15s6.7-15 15-15h37.7c8.3 0 15 6.7 15 15s-6.7 15-15 15H76.6z"/>
</svg>
