<svg xmlns="http://www.w3.org/2000/svg" width="1000" height="620" viewBox="0 0 1000 620" role="img" aria-labelledby="t d">
<title id="t">Category share of holidays in 2026 dataset</title>
<desc id="d">Horizontal bar chart of category percentages, led by animals and nature and food.</desc>
<rect width="100%" height="100%" fill="#ffffff"/>
<text x="248" y="66.0" font-size="14" text-anchor="end" fill="#0f172a">Animals Nature</text>
<rect x="260" y="48.0" width="700.0" height="22" fill="#0ea5e9" rx="4"/>
<text x="968.0" y="65.0" font-size="13" fill="#334155">272 (37.16%)</text>
<text x="248" y="133.5" font-size="14" text-anchor="end" fill="#0f172a">Food</text>
<rect x="260" y="115.5" width="648.6" height="22" fill="#22c55e" rx="4"/>
<text x="916.6" y="132.5" font-size="13" fill="#334155">252 (34.43%)</text>
<text x="248" y="201.0" font-size="14" text-anchor="end" fill="#0f172a">Arts Culture</text>
<rect x="260" y="183.0" width="234.1" height="22" fill="#f59e0b" rx="4"/>
<text x="502.1" y="200.0" font-size="13" fill="#334155">91 (12.43%)</text>
<text x="248" y="268.5" font-size="14" text-anchor="end" fill="#0f172a">Wellness Lifestyle</text>
<rect x="260" y="250.5" width="100.4" height="22" fill="#8b5cf6" rx="4"/>
<text x="368.4" y="267.5" font-size="13" fill="#334155">39 (5.33%)</text>
<text x="248" y="336.0" font-size="14" text-anchor="end" fill="#0f172a">Fun Weird General</text>
<rect x="260" y="318.0" width="97.8" height="22" fill="#ef4444" rx="4"/>
<text x="365.8" y="335.0" font-size="13" fill="#334155">38 (5.19%)</text>
<text x="248" y="403.5" font-size="14" text-anchor="end" fill="#0f172a">Seasonal</text>
<rect x="260" y="385.5" width="61.8" height="22" fill="#14b8a6" rx="4"/>
<text x="329.8" y="402.5" font-size="13" fill="#334155">24 (3.28%)</text>
<text x="248" y="471.0" font-size="14" text-anchor="end" fill="#0f172a">Work Technology</text>
<rect x="260" y="453.0" width="23.2" height="22" fill="#64748b" rx="4"/>
<text x="291.2" y="470.0" font-size="13" fill="#334155">9 (1.23%)</text>
<text x="248" y="538.5" font-size="14" text-anchor="end" fill="#0f172a">Awareness Advocacy</text>
<rect x="260" y="520.5" width="18.1" height="22" fill="#a855f7" rx="4"/>
<text x="286.1" y="537.5" font-size="13" fill="#334155">7 (0.96%)</text>
</svg>