<svg xmlns="http://www.w3.org/2000/svg" width="1200" height="620" viewBox="0 0 1200 620" role="img" aria-labelledby="t d">
<title id="t">Longest holiday names (obscurity index proxy)</title>
<desc id="d">Horizontal bar chart ranking holiday names by character length.</desc>
<rect width="100%" height="100%" fill="#fff"/>
<text x="490" y="65.0" text-anchor="end" font-size="12" fill="#0f172a">National Pizza with the Works Except Anchovies Day</text>
<rect x="500" y="48.0" width="660.0" height="20" fill="#0f766e" rx="4"/>
<text x="1168.0" y="63.0" font-size="12" fill="#334155">50 chars</text>
<text x="490" y="119.0" text-anchor="end" font-size="12" fill="#0f172a">Answer The Telephone Like Buddy The Elf Day</text>
<rect x="500" y="102.0" width="567.6" height="20" fill="#0f766e" rx="4"/>
<text x="1075.6" y="117.0" font-size="12" fill="#334155">43 chars</text>
<text x="490" y="173.0" text-anchor="end" font-size="12" fill="#0f172a">National Law Enforcement Appreciation Day</text>
<rect x="500" y="156.0" width="541.2" height="20" fill="#0f766e" rx="4"/>
<text x="1049.2" y="171.0" font-size="12" fill="#334155">41 chars</text>
<text x="490" y="227.0" text-anchor="end" font-size="12" fill="#0f172a">National Answer Your Cat's Questions Day</text>
<rect x="500" y="210.0" width="528.0" height="20" fill="#0f766e" rx="4"/>
<text x="1036.0" y="225.0" font-size="12" fill="#334155">40 chars</text>
<text x="490" y="281.0" text-anchor="end" font-size="12" fill="#0f172a">National Two Different Colored Shoes Day</text>
<rect x="500" y="264.0" width="528.0" height="20" fill="#0f766e" rx="4"/>
<text x="1036.0" y="279.0" font-size="12" fill="#334155">40 chars</text>
<text x="490" y="335.0" text-anchor="end" font-size="12" fill="#0f172a">National Chocolate-covered Anything Day</text>
<rect x="500" y="318.0" width="514.8" height="20" fill="#0f766e" rx="4"/>
<text x="1022.8" y="333.0" font-size="12" fill="#334155">39 chars</text>
<text x="490" y="389.0" text-anchor="end" font-size="12" fill="#0f172a">Particularly Preposterous Packaging Day</text>
<rect x="500" y="372.0" width="514.8" height="20" fill="#0f766e" rx="4"/>
<text x="1022.8" y="387.0" font-size="12" fill="#334155">39 chars</text>
<text x="490" y="443.0" text-anchor="end" font-size="12" fill="#0f172a">Bittersweet Chocolate with Almonds Day</text>
<rect x="500" y="426.0" width="501.6" height="20" fill="#0f766e" rx="4"/>
<text x="1009.6" y="441.0" font-size="12" fill="#334155">38 chars</text>
<text x="490" y="497.0" text-anchor="end" font-size="12" fill="#0f172a">International Respect for Chickens Day</text>
<rect x="500" y="480.0" width="501.6" height="20" fill="#0f766e" rx="4"/>
<text x="1009.6" y="495.0" font-size="12" fill="#334155">38 chars</text>
<text x="490" y="551.0" text-anchor="end" font-size="12" fill="#0f172a">National Chocolate Covered Pretzel Day</text>
<rect x="500" y="534.0" width="501.6" height="20" fill="#0f766e" rx="4"/>
<text x="1009.6" y="549.0" font-size="12" fill="#334155">38 chars</text>
</svg>