<svg xmlns="http://www.w3.org/2000/svg" width="980" height="520" viewBox="0 0 980 520" role="img" aria-labelledby="t d">
<title id="t">Top 10 most crowded dates</title>
<desc id="d">Bar chart of top ten dates by holiday count. All top dates have equal count in this dataset.</desc>
<rect width="100%" height="100%" fill="#ffffff"/>
<line x1="120" y1="410" x2="950" y2="410" stroke="#334155" stroke-width="2"/>
<line x1="120" y1="40" x2="120" y2="410" stroke="#334155" stroke-width="2"/>
<rect x="137.4" y="40.0" width="48.1" height="370.0" fill="#0ea5e9" rx="4"/>
<text x="161.5" y="32.0" font-size="12" text-anchor="middle" fill="#0f172a">2</text>
<text x="161.5" y="434" font-size="12" text-anchor="middle" fill="#334155">01-01</text>
<rect x="220.4" y="40.0" width="48.1" height="370.0" fill="#0ea5e9" rx="4"/>
<text x="244.5" y="32.0" font-size="12" text-anchor="middle" fill="#0f172a">2</text>
<text x="244.5" y="434" font-size="12" text-anchor="middle" fill="#334155">01-02</text>
<rect x="303.4" y="40.0" width="48.1" height="370.0" fill="#0ea5e9" rx="4"/>
<text x="327.5" y="32.0" font-size="12" text-anchor="middle" fill="#0f172a">2</text>
<text x="327.5" y="434" font-size="12" text-anchor="middle" fill="#334155">01-03</text>
<rect x="386.4" y="40.0" width="48.1" height="370.0" fill="#0ea5e9" rx="4"/>
<text x="410.5" y="32.0" font-size="12" text-anchor="middle" fill="#0f172a">2</text>
<text x="410.5" y="434" font-size="12" text-anchor="middle" fill="#334155">01-04</text>
<rect x="469.4" y="40.0" width="48.1" height="370.0" fill="#0ea5e9" rx="4"/>
<text x="493.5" y="32.0" font-size="12" text-anchor="middle" fill="#0f172a">2</text>
<text x="493.5" y="434" font-size="12" text-anchor="middle" fill="#334155">01-05</text>
<rect x="552.4" y="40.0" width="48.1" height="370.0" fill="#0ea5e9" rx="4"/>
<text x="576.5" y="32.0" font-size="12" text-anchor="middle" fill="#0f172a">2</text>
<text x="576.5" y="434" font-size="12" text-anchor="middle" fill="#334155">01-06</text>
<rect x="635.4" y="40.0" width="48.1" height="370.0" fill="#0ea5e9" rx="4"/>
<text x="659.5" y="32.0" font-size="12" text-anchor="middle" fill="#0f172a">2</text>
<text x="659.5" y="434" font-size="12" text-anchor="middle" fill="#334155">01-07</text>
<rect x="718.4" y="40.0" width="48.1" height="370.0" fill="#0ea5e9" rx="4"/>
<text x="742.5" y="32.0" font-size="12" text-anchor="middle" fill="#0f172a">2</text>
<text x="742.5" y="434" font-size="12" text-anchor="middle" fill="#334155">01-08</text>
<rect x="801.4" y="40.0" width="48.1" height="370.0" fill="#0ea5e9" rx="4"/>
<text x="825.5" y="32.0" font-size="12" text-anchor="middle" fill="#0f172a">2</text>
<text x="825.5" y="434" font-size="12" text-anchor="middle" fill="#334155">01-09</text>
<rect x="884.4" y="40.0" width="48.1" height="370.0" fill="#0ea5e9" rx="4"/>
<text x="908.5" y="32.0" font-size="12" text-anchor="middle" fill="#0f172a">2</text>
<text x="908.5" y="434" font-size="12" text-anchor="middle" fill="#334155">01-10</text>
</svg>